<svg width="512" height="512" viewBox="0 0 512 512" fill="none" xmlns="http://www.w3.org/2000/svg">
<g clip-path="url(#clip0)">
<path d="M84 20V40H69.3C60.2 40 51.8 40.6 47.5 41.5C25 46.2 6.20001 65 1.50001 87.5C-0.699994 98 -0.699994 454 1.50001 464.5C6.20001 487 25 505.8 47.5 510.5C58 512.7 454 512.7 464.5 510.5C487 505.8 505.8 487 510.5 464.5C512.7 454 512.7 98 510.5 87.5C505.8 65 487 46.2 464.5 41.5C460.2 40.6 451.8 40 442.8 40H428V20V1.67824e-05H408H388V20V40H256H124V20V1.67824e-05H104H84V20ZM84 100V120H104H124V100V80H256H388V100V120H408H428V99.9V79.8L443.3 80.2C457.7 80.5 458.9 80.6 462.3 83C464.4 84.4 467.3 87.3 468.8 89.4L471.5 93.3L471.8 120.7L472.1 148H256.1H40V122.7C40 108.8 40.5 95.9 41 93.8C42.3 89.4 49.1 82.3 53.4 81.1C55.1 80.6 62.7 80.1 70.3 80.1L84 80V100ZM471.8 323.3L471.5 458.7L468.8 462.6C467.3 464.7 464.4 467.6 462.3 469L458.6 471.5H256H53.4L49.7 469C47.6 467.6 44.7 464.7 43.2 462.6L40.5 458.7L40.2 323.3L40 188H256H472L471.8 323.3Z" fill="#959595"/>
<path d="M76 250V270H96H116V250V230H96H76V250Z" fill="#959595"/>
<path d="M156 250V270H176H196V250V230H176H156V250Z" fill="#959595"/>
<path d="M236 250V270H256H276V250V230H256H236V250Z" fill="#959595"/>
<path d="M316 250V270H336H356V250V230H336H316V250Z" fill="#959595"/>
<path d="M396 250V270H416H436V250V230H416H396V250Z" fill="#959595"/>
<path d="M76 330V350H96H116V330V310H96H76V330Z" fill="#959595"/>
<path d="M156 330V350H176H196V330V310H176H156V330Z" fill="#959595"/>
<path d="M236 330V350H256H276V330V310H256H236V330Z" fill="#959595"/>
<path d="M316 330V350H336H356V330V310H336H316V330Z" fill="#959595"/>
<path d="M396 330V350H416H436V330V310H416H396V330Z" fill="#959595"/>
<path d="M76 410V430H96H116V410V390H96H76V410Z" fill="#959595"/>
<path d="M156 410V430H176H196V410V390H176H156V410Z" fill="#959595"/>
<path d="M236 410V430H256H276V410V390H256H236V410Z" fill="#959595"/>
<path d="M316 410V430H336H356V410V390H336H316V410Z" fill="#959595"/>
</g>
<defs>
<clipPath id="clip0">
<rect width="512" height="512" fill="white"/>
</clipPath>
</defs>
</svg>
