<svg width="512" height="428" viewBox="0 0 512 428" fill="none" xmlns="http://www.w3.org/2000/svg">
<path d="M37 79.9C30.9 81.9 26.8 85 15.9 95.9C6.20001 105.6 3.90001 108.5 2.20001 113.3C-0.599988 120.6 -0.599988 126.4 2.10001 133.7C4.10001 139.3 9.20001 144.5 122.4 257.8C209.8 345.3 241.7 376.6 245 378.2C252 381.6 259.6 381.8 266.7 378.6C272 376.2 283.4 365 389.7 258.2C471.3 176.2 507.5 139.1 509.2 136C511 132.5 511.5 129.9 511.5 124C511.5 113.3 509.3 109.6 494 94.6C483 83.7 480.7 82 476 80.6C468.8 78.5 464.2 78.6 457.3 81.1C451.8 83.1 447.1 87.6 353.7 180.9L256 278.5L158.2 180.9C90.5 113.3 59.3 82.7 56.5 81.4C52.2 79.4 41.1 78.6 37 79.9Z" fill="#959595"/>
</svg>
