<svg width="512" height="512" viewBox="0 0 512 512" fill="none" xmlns="http://www.w3.org/2000/svg">
<path d="M237 0.700017C199.9 4.20002 171.7 12.1 140.9 27.6C100.3 47.9 62.7 82.4 38 122C20.1 150.6 7.09999 187.5 1.79999 224.5C0.0999939 236.3 0.0999939 275.7 1.79999 287.5C5.99999 317 13.8 342.8 26 367.5C39.7 395.5 53.2 414.3 75.4 436.6C97.5 458.6 116.6 472.3 143.5 485.5C162.3 494.7 174.4 499.2 193.5 504C243.5 516.6 293.7 514.2 342.5 496.9C357.5 491.6 383.3 478.6 396.5 469.8C452.5 432.4 491.7 375.6 506 311C509.3 296 511 281.9 511.7 264.5C513.2 221.9 504.4 181.3 485.4 143.1C473 118.1 459.1 98.4 439.6 78.3C418.2 56.1 396.6 40.4 368.5 26.5C338.9 11.9 311.3 4.00002 278.5 1.00002C268.3 0.100017 245.2 -0.0999832 237 0.700017ZM291.5 34.9C354.3 45.5 407.3 79.7 442.6 132.6C460.5 159.3 472.2 189.9 477.7 223.5C480.1 238.8 480.1 273.2 477.7 288.5C466.9 355.3 430.3 410.7 373.5 446.5C349.2 461.8 319.8 472.6 288.5 477.7C273.1 480.1 238.8 480.1 223.5 477.6C157.8 466.9 103.7 432 67.8 377C51 351.3 39.7 321.3 34.3 288.5C31.9 273.2 31.9 238.8 34.3 223.5C42.4 173.8 63.4 132.3 97.9 98C136.1 59.9 184.1 37.5 238 32.6C248.8 31.6 279.8 33 291.5 34.9Z" fill="#959595"/>
<path d="M240 179.3V262.5L290.3 312.8L340.5 363L351.8 351.7L363 340.5L317.5 295L272 249.5V172.8V96H256H240V179.3Z" fill="#959595"/>
</svg>
