<?xml version="1.0" encoding="utf-8"?>
<!-- Generator: Adobe Illustrator 23.0.2, SVG Export Plug-In . SVG Version: 6.00 Build 0)  -->
<svg version="1.1" id="Capa_1" xmlns="http://www.w3.org/2000/svg" xmlns:xlink="http://www.w3.org/1999/xlink" x="0px" y="0px"
	 viewBox="0 0 908 652" style="enable-background:new 0 0 908 652;" xml:space="preserve">
<style type="text/css">
	.st0{fill:#AF0000;}
	.st1{fill:#FFFFFF;}
</style>
<rect x="1978" width="908" height="652"/>
<g>
	<g>
		<path class="st0" d="M481.1,92.62v2.27c2.9,0,5.27,0.89,7.12,2.65c1.84,1.77,2.77,4.04,2.77,6.81v91.42h64.47v-91.42
			c0-2.77,1.01-5.04,3.04-6.81c2.02-1.76,4.52-2.65,7.5-2.65v-2.27H481.1z"/>
		<path d="M555.46,345.77V235.63v-9.05v-2.65h-87.14h-37.74h-49.74v-121.4c0.45-3.54,3.11-6.45,6.65-7.49h34.38v-2.65h-84.88v2.65
			h34.24c3.46,0.98,6.09,3.63,6.77,6.9v245.95c-0.49,3.22-2.87,5.9-6.11,7.08h-34.9v2.65h84.88v-2.65h-35.16
			c-3.05-1.15-5.32-3.72-5.87-6.83V226.57h49.74h37.74h22.68v9.05v110.15c0,2.78-0.92,5.05-2.77,6.81
			c-1.85,1.77-4.22,2.65-7.12,2.65v2.27H566v-2.27c-2.98,0-5.48-0.88-7.5-2.65C556.47,350.82,555.46,348.55,555.46,345.77z"/>
	</g>
	<g>
		<path d="M250.44,501.65l-39.31,0.16l0.12,30.92l-4.71,0.02l-0.14-35.63l-0.12-30.92l4.71-0.02l0.12,30.92l39.31-0.16l-0.12-30.92
			l4.61-0.02l0.13,33.17l0.13,33.37l-4.61,0.02L250.44,501.65z"/>
		<path d="M295.4,532.38l-0.27-66.54l43.1-0.17l0.02,4.71l-38.49,0.15l0.11,26.21l30-0.12l0.02,4.71l-30,0.12l0.1,26.1l38.49-0.15
			l0.02,4.81L295.4,532.38z"/>
		<path d="M380.97,477.99l0.22,54.05l-4.61,0.02l-0.27-67.36l46.29,54.89l-0.22-54.26l4.61-0.02l0.27,67.67L380.97,477.99z"/>
		<path d="M496.87,532.29c-6.08,0.02-11.71-1.49-16.91-4.54c-5.2-3.05-9.31-7.18-12.33-12.39c-3.02-5.21-4.55-10.89-4.57-17.03
			c-0.02-6.14,1.45-11.81,4.44-17.01c2.98-5.2,7.06-9.34,12.23-12.44c5.17-3.09,10.8-4.65,16.87-4.67
			c4.71-0.02,9.23,0.94,13.58,2.86c4.34,1.93,8.16,4.66,11.45,8.2l-3.57,3.19c-2.74-3.06-5.98-5.44-9.7-7.13
			c-3.73-1.69-7.64-2.53-11.73-2.51c-5.26,0.02-10.1,1.35-14.52,4c-4.43,2.65-7.94,6.22-10.55,10.74c-2.61,4.52-3.9,9.43-3.88,14.76
			c0.02,5.32,1.35,10.23,4,14.73c2.65,4.49,6.19,8.05,10.64,10.66c4.45,2.61,9.3,3.9,14.55,3.88c4.37-0.02,8.51-0.99,12.43-2.92
			c3.92-1.92,7.27-4.6,10.05-8.02l3.7,2.85c-3.19,4.04-7.07,7.18-11.63,9.41C506.83,531.14,501.99,532.27,496.87,532.29z"/>
		<path d="M588.49,531.92c-6.07,0.02-11.71-1.47-16.91-4.49c-5.2-3.02-9.31-7.13-12.33-12.34c-3.02-5.21-4.55-10.89-4.57-17.03
			c-0.02-6.14,1.45-11.83,4.44-17.06c2.98-5.23,7.06-9.38,12.23-12.44c5.17-3.06,10.8-4.6,16.87-4.62
			c6.07-0.02,11.71,1.47,16.91,4.49c5.2,3.02,9.31,7.13,12.33,12.34c3.02,5.21,4.55,10.89,4.57,17.03
			c0.02,6.14-1.45,11.83-4.44,17.06c-2.98,5.23-7.06,9.38-12.23,12.44C600.19,530.36,594.57,531.9,588.49,531.92z M588.24,468.66
			c-5.26,0.02-10.1,1.36-14.52,4c-4.43,2.65-7.94,6.21-10.55,10.69c-2.61,4.48-3.9,9.38-3.88,14.71c0.02,5.32,1.35,10.22,4,14.67
			c2.65,4.46,6.19,8,10.64,10.6c4.45,2.61,9.3,3.9,14.55,3.88c5.25-0.02,10.09-1.35,14.52-4c4.42-2.64,7.93-6.21,10.5-10.69
			c2.58-4.48,3.85-9.38,3.83-14.71c-0.02-5.32-1.34-10.21-3.95-14.67c-2.61-4.46-6.14-7.99-10.59-10.6
			C598.34,469.93,593.49,468.63,588.24,468.66z"/>
		<path d="M708.98,530.72l-6.14,0.02l-23.97-28.26l-21.38,29.57l-0.27-67.67l4.61-0.02l0.21,53.34l38.58-53.49l5.84-0.02
			l-24.84,34.29L708.98,530.72z"/>
	</g>
	<rect x="93" y="436" width="722" height="2"/>
	<rect x="93" y="559.5" width="722" height="2"/>
</g>
<g>
	<g>
		<path d="M1470.1,92.62v2.27c2.9,0,5.27,0.89,7.12,2.65c1.84,1.77,2.77,4.04,2.77,6.81v91.42h64.47v-91.42
			c0-2.77,1.01-5.04,3.04-6.81c2.02-1.76,4.52-2.65,7.5-2.65v-2.27H1470.1z"/>
		<path d="M1544.46,345.77V235.63v-9.05v-2.65h-87.14h-37.74h-49.74v-121.4c0.45-3.54,3.11-6.45,6.65-7.49h34.38v-2.65h-84.88v2.65
			h34.24c3.46,0.98,6.09,3.63,6.77,6.9v245.95c-0.49,3.22-2.88,5.9-6.11,7.08h-34.9v2.65h84.88v-2.65h-35.16
			c-3.05-1.15-5.32-3.72-5.87-6.83V226.57h49.74h37.74h22.68v9.05v110.15c0,2.78-0.92,5.05-2.77,6.81
			c-1.85,1.77-4.22,2.65-7.12,2.65v2.27h84.9v-2.27c-2.98,0-5.48-0.88-7.5-2.65C1545.47,350.82,1544.46,348.55,1544.46,345.77z"/>
	</g>
	<g>
		<path d="M1239.44,501.65l-39.31,0.16l0.12,30.92l-4.71,0.02l-0.14-35.63l-0.12-30.92l4.71-0.02l0.12,30.92l39.31-0.16l-0.12-30.92
			l4.61-0.02l0.13,33.17l0.13,33.37l-4.61,0.02L1239.44,501.65z"/>
		<path d="M1284.4,532.38l-0.27-66.54l43.1-0.17l0.02,4.71l-38.49,0.15l0.11,26.21l30-0.12l0.02,4.71l-30,0.12l0.1,26.1l38.49-0.15
			l0.02,4.81L1284.4,532.38z"/>
		<path d="M1369.97,477.99l0.22,54.05l-4.61,0.02l-0.27-67.36l46.29,54.89l-0.22-54.26l4.61-0.02l0.27,67.67L1369.97,477.99z"/>
		<path d="M1485.87,532.29c-6.08,0.02-11.71-1.49-16.91-4.54c-5.2-3.05-9.31-7.18-12.33-12.39c-3.02-5.21-4.55-10.89-4.57-17.03
			c-0.02-6.14,1.45-11.81,4.44-17.01c2.98-5.2,7.06-9.34,12.23-12.44c5.17-3.09,10.8-4.65,16.87-4.67
			c4.71-0.02,9.23,0.94,13.58,2.86c4.34,1.93,8.16,4.66,11.45,8.2l-3.57,3.19c-2.74-3.06-5.98-5.44-9.7-7.13
			c-3.73-1.69-7.64-2.53-11.73-2.51c-5.26,0.02-10.1,1.35-14.52,4c-4.43,2.65-7.94,6.22-10.55,10.74c-2.61,4.52-3.9,9.43-3.88,14.76
			c0.02,5.32,1.35,10.23,4,14.73c2.65,4.49,6.19,8.05,10.64,10.66c4.45,2.61,9.3,3.9,14.55,3.88c4.37-0.02,8.51-0.99,12.43-2.92
			c3.92-1.92,7.27-4.6,10.05-8.02l3.7,2.85c-3.19,4.04-7.07,7.18-11.63,9.41C1495.83,531.14,1490.99,532.27,1485.87,532.29z"/>
		<path d="M1577.49,531.92c-6.07,0.02-11.71-1.47-16.91-4.49c-5.2-3.02-9.31-7.13-12.33-12.34c-3.02-5.21-4.55-10.89-4.57-17.03
			c-0.02-6.14,1.45-11.83,4.44-17.06c2.98-5.23,7.06-9.38,12.23-12.44c5.17-3.06,10.8-4.6,16.87-4.62
			c6.07-0.02,11.71,1.47,16.91,4.49c5.2,3.02,9.31,7.13,12.33,12.34c3.02,5.21,4.55,10.89,4.57,17.03
			c0.02,6.14-1.45,11.83-4.44,17.06c-2.98,5.23-7.06,9.38-12.23,12.44C1589.19,530.36,1583.57,531.9,1577.49,531.92z
			 M1577.24,468.66c-5.26,0.02-10.1,1.36-14.52,4c-4.43,2.65-7.94,6.21-10.55,10.69c-2.61,4.48-3.9,9.38-3.88,14.71
			c0.02,5.32,1.35,10.22,4,14.67c2.65,4.46,6.19,8,10.64,10.6c4.45,2.61,9.3,3.9,14.55,3.88c5.25-0.02,10.09-1.35,14.52-4
			c4.42-2.64,7.93-6.21,10.5-10.69c2.58-4.48,3.85-9.38,3.83-14.71c-0.02-5.32-1.34-10.21-3.95-14.67
			c-2.61-4.46-6.14-7.99-10.59-10.6C1587.34,469.93,1582.49,468.63,1577.24,468.66z"/>
		<path d="M1697.98,530.72l-6.14,0.02l-23.97-28.26l-21.38,29.57l-0.27-67.67l4.61-0.02l0.21,53.34l38.58-53.49l5.84-0.02
			l-24.84,34.29L1697.98,530.72z"/>
	</g>
	<rect x="1082" y="436" width="722" height="2"/>
	<rect x="1082" y="559.5" width="722" height="2"/>
</g>
<g>
	<g>
		<path class="st1" d="M2459.1,92.62v2.27c2.9,0,5.27,0.89,7.12,2.65c1.84,1.77,2.77,4.04,2.77,6.81v91.42h64.47v-91.42
			c0-2.77,1.01-5.04,3.04-6.81c2.02-1.76,4.52-2.65,7.5-2.65v-2.27H2459.1z"/>
		<path class="st1" d="M2533.46,345.77V235.63v-9.05v-2.65h-87.14h-37.74h-49.74v-121.4c0.45-3.54,3.11-6.45,6.65-7.49h34.38v-2.65
			h-84.88v2.65h34.24c3.46,0.98,6.09,3.63,6.77,6.9v245.95c-0.49,3.22-2.88,5.9-6.11,7.08h-34.9v2.65h84.88v-2.65h-35.16
			c-3.05-1.15-5.32-3.72-5.87-6.83V226.57h49.74h37.74h22.68v9.05v110.15c0,2.78-0.92,5.05-2.77,6.81
			c-1.85,1.77-4.22,2.65-7.12,2.65v2.27h84.9v-2.27c-2.98,0-5.48-0.88-7.5-2.65C2534.47,350.82,2533.46,348.55,2533.46,345.77z"/>
	</g>
	<g>
		<path class="st1" d="M2228.44,501.65l-39.31,0.16l0.12,30.92l-4.71,0.02l-0.14-35.63l-0.12-30.92l4.71-0.02l0.12,30.92l39.31-0.16
			l-0.12-30.92l4.61-0.02l0.13,33.17l0.13,33.37l-4.61,0.02L2228.44,501.65z"/>
		<path class="st1" d="M2273.4,532.38l-0.27-66.54l43.1-0.17l0.02,4.71l-38.49,0.15l0.11,26.21l30-0.12l0.02,4.71l-30,0.12l0.1,26.1
			l38.49-0.15l0.02,4.81L2273.4,532.38z"/>
		<path class="st1" d="M2358.97,477.99l0.22,54.05l-4.61,0.02l-0.27-67.36l46.29,54.89l-0.22-54.26l4.61-0.02l0.27,67.67
			L2358.97,477.99z"/>
		<path class="st1" d="M2474.87,532.29c-6.08,0.02-11.71-1.49-16.91-4.54c-5.2-3.05-9.31-7.18-12.33-12.39
			c-3.02-5.21-4.55-10.89-4.57-17.03c-0.02-6.14,1.45-11.81,4.44-17.01c2.98-5.2,7.06-9.34,12.23-12.44
			c5.17-3.09,10.8-4.65,16.87-4.67c4.71-0.02,9.23,0.94,13.58,2.86c4.34,1.93,8.16,4.66,11.45,8.2l-3.57,3.19
			c-2.74-3.06-5.98-5.44-9.7-7.13c-3.73-1.69-7.64-2.53-11.73-2.51c-5.26,0.02-10.1,1.35-14.52,4c-4.43,2.65-7.94,6.22-10.55,10.74
			c-2.61,4.52-3.9,9.43-3.88,14.76c0.02,5.32,1.35,10.23,4,14.73c2.65,4.49,6.19,8.05,10.64,10.66c4.45,2.61,9.3,3.9,14.55,3.88
			c4.37-0.02,8.51-0.99,12.43-2.92c3.92-1.92,7.27-4.6,10.05-8.02l3.7,2.85c-3.19,4.04-7.07,7.18-11.63,9.41
			C2484.83,531.14,2479.99,532.27,2474.87,532.29z"/>
		<path class="st1" d="M2566.49,531.92c-6.07,0.02-11.71-1.47-16.91-4.49c-5.2-3.02-9.31-7.13-12.33-12.34
			c-3.02-5.21-4.55-10.89-4.57-17.03c-0.02-6.14,1.45-11.83,4.44-17.06c2.98-5.23,7.06-9.38,12.23-12.44
			c5.17-3.06,10.8-4.6,16.87-4.62c6.07-0.02,11.71,1.47,16.91,4.49c5.2,3.02,9.31,7.13,12.33,12.34c3.02,5.21,4.55,10.89,4.57,17.03
			c0.02,6.14-1.45,11.83-4.44,17.06c-2.98,5.23-7.06,9.38-12.23,12.44C2578.19,530.36,2572.57,531.9,2566.49,531.92z
			 M2566.24,468.66c-5.26,0.02-10.1,1.36-14.52,4c-4.43,2.65-7.94,6.21-10.55,10.69c-2.61,4.48-3.9,9.38-3.88,14.71
			c0.02,5.32,1.35,10.22,4,14.67c2.65,4.46,6.19,8,10.64,10.6c4.45,2.61,9.3,3.9,14.55,3.88c5.25-0.02,10.09-1.35,14.52-4
			c4.42-2.64,7.93-6.21,10.5-10.69c2.58-4.48,3.85-9.38,3.83-14.71c-0.02-5.32-1.34-10.21-3.95-14.67
			c-2.61-4.46-6.14-7.99-10.59-10.6C2576.34,469.93,2571.49,468.63,2566.24,468.66z"/>
		<path class="st1" d="M2686.98,530.72l-6.14,0.02l-23.97-28.26l-21.38,29.57l-0.27-67.67l4.61-0.02l0.21,53.34l38.58-53.49
			l5.84-0.02l-24.84,34.29L2686.98,530.72z"/>
	</g>
	<rect x="2071" y="436" class="st1" width="722" height="2"/>
	<rect x="2071" y="559.5" class="st1" width="722" height="2"/>
</g>
<g>
	<g>
		<path class="st1" d="M3446.1,92.62v2.27c2.9,0,5.27,0.89,7.12,2.65c1.84,1.77,2.77,4.04,2.77,6.81v91.42h64.47v-91.42
			c0-2.77,1.01-5.04,3.04-6.81c2.02-1.76,4.52-2.65,7.5-2.65v-2.27H3446.1z"/>
		<path class="st1" d="M3520.46,345.77V235.63v-9.05v-2.65h-87.14h-37.74h-49.74v-121.4c0.45-3.54,3.11-6.45,6.65-7.49h34.38v-2.65
			h-84.88v2.65h34.24c3.46,0.98,6.09,3.63,6.77,6.9v245.95c-0.49,3.22-2.88,5.9-6.11,7.08h-34.9v2.65h84.88v-2.65h-35.16
			c-3.05-1.15-5.32-3.72-5.87-6.83V226.57h49.74h37.74h22.68v9.05v110.15c0,2.78-0.92,5.05-2.77,6.81
			c-1.85,1.77-4.22,2.65-7.12,2.65v2.27h84.9v-2.27c-2.98,0-5.48-0.88-7.5-2.65C3521.47,350.82,3520.46,348.55,3520.46,345.77z"/>
	</g>
	<g>
		<path class="st1" d="M3215.44,501.65l-39.31,0.16l0.12,30.92l-4.71,0.02l-0.14-35.63l-0.12-30.92l4.71-0.02l0.12,30.92l39.31-0.16
			l-0.12-30.92l4.61-0.02l0.13,33.17l0.13,33.37l-4.61,0.02L3215.44,501.65z"/>
		<path class="st1" d="M3260.4,532.38l-0.27-66.54l43.1-0.17l0.02,4.71l-38.49,0.15l0.11,26.21l30-0.12l0.02,4.71l-30,0.12l0.1,26.1
			l38.49-0.15l0.02,4.81L3260.4,532.38z"/>
		<path class="st1" d="M3345.97,477.99l0.22,54.05l-4.61,0.02l-0.27-67.36l46.29,54.89l-0.22-54.26l4.61-0.02l0.27,67.67
			L3345.97,477.99z"/>
		<path class="st1" d="M3461.87,532.29c-6.08,0.02-11.71-1.49-16.91-4.54c-5.2-3.05-9.31-7.18-12.33-12.39
			c-3.02-5.21-4.55-10.89-4.57-17.03c-0.02-6.14,1.45-11.81,4.44-17.01c2.98-5.2,7.06-9.34,12.23-12.44
			c5.17-3.09,10.8-4.65,16.87-4.67c4.71-0.02,9.23,0.94,13.58,2.86c4.34,1.93,8.16,4.66,11.45,8.2l-3.57,3.19
			c-2.74-3.06-5.98-5.44-9.7-7.13c-3.73-1.69-7.64-2.53-11.73-2.51c-5.26,0.02-10.1,1.35-14.52,4c-4.43,2.65-7.94,6.22-10.55,10.74
			c-2.61,4.52-3.9,9.43-3.88,14.76c0.02,5.32,1.35,10.23,4,14.73c2.65,4.49,6.19,8.05,10.64,10.66c4.45,2.61,9.3,3.9,14.55,3.88
			c4.37-0.02,8.51-0.99,12.43-2.92c3.92-1.92,7.27-4.6,10.05-8.02l3.7,2.85c-3.19,4.04-7.07,7.18-11.63,9.41
			C3471.83,531.14,3466.99,532.27,3461.87,532.29z"/>
		<path class="st1" d="M3553.49,531.92c-6.07,0.02-11.71-1.47-16.91-4.49c-5.2-3.02-9.31-7.13-12.33-12.34
			c-3.02-5.21-4.55-10.89-4.57-17.03c-0.02-6.14,1.45-11.83,4.44-17.06c2.98-5.23,7.06-9.38,12.23-12.44
			c5.17-3.06,10.8-4.6,16.87-4.62c6.07-0.02,11.71,1.47,16.91,4.49c5.2,3.02,9.31,7.13,12.33,12.34c3.02,5.21,4.55,10.89,4.57,17.03
			c0.02,6.14-1.45,11.83-4.44,17.06c-2.98,5.23-7.06,9.38-12.23,12.44C3565.19,530.36,3559.57,531.9,3553.49,531.92z
			 M3553.24,468.66c-5.26,0.02-10.1,1.36-14.52,4c-4.43,2.65-7.94,6.21-10.55,10.69c-2.61,4.48-3.9,9.38-3.88,14.71
			c0.02,5.32,1.35,10.22,4,14.67c2.65,4.46,6.19,8,10.64,10.6c4.45,2.61,9.3,3.9,14.55,3.88c5.25-0.02,10.09-1.35,14.52-4
			c4.42-2.64,7.93-6.21,10.5-10.69c2.58-4.48,3.85-9.38,3.83-14.71c-0.02-5.32-1.34-10.21-3.95-14.67
			c-2.61-4.46-6.14-7.99-10.59-10.6C3563.34,469.93,3558.49,468.63,3553.24,468.66z"/>
		<path class="st1" d="M3673.98,530.72l-6.14,0.02l-23.97-28.26l-21.38,29.57l-0.27-67.67l4.61-0.02l0.21,53.34l38.58-53.49
			l5.84-0.02l-24.84,34.29L3673.98,530.72z"/>
	</g>
	<rect x="3058" y="436" class="st1" width="722" height="2"/>
	<rect x="3058" y="559.5" class="st1" width="722" height="2"/>
</g>
</svg>
